<svg width="23" height="24" viewBox="0 0 23 24" fill="none" xmlns="http://www.w3.org/2000/svg">
<path d="M4.15192 18.1743C5.14358 17.4385 6.22392 16.8574 7.39292 16.431C8.56172 16.0048 9.80578 15.7917 11.1251 15.7917C12.4444 15.7917 13.6884 16.0048 14.8572 16.431C16.0262 16.8574 17.1066 17.4385 18.0982 18.1743C18.8235 17.3771 19.3982 16.4543 19.8223 15.4058C20.2464 14.3574 20.4584 13.2221 20.4584 12C20.4584 9.41391 19.5494 7.21183 17.7313 5.39377C15.9133 3.57572 13.7112 2.66669 11.1251 2.66669C8.53897 2.66669 6.33689 3.57572 4.51883 5.39377C2.70078 7.21183 1.79175 9.41391 1.79175 12C1.79175 13.2221 2.00379 14.3574 2.42787 15.4058C2.85196 16.4543 3.42664 17.3771 4.15192 18.1743ZM11.1254 12.875C10.0602 12.875 9.16197 12.5095 8.43067 11.7784C7.69916 11.047 7.33342 10.1488 7.33342 9.08365C7.33342 8.01848 7.69897 7.12024 8.43008 6.38894C9.16139 5.65744 10.0596 5.29169 11.1248 5.29169C12.19 5.29169 13.0882 5.65724 13.8195 6.38835C14.551 7.11966 14.9167 8.0179 14.9167 9.08306C14.9167 10.1482 14.5512 11.0465 13.8201 11.7778C13.0888 12.5093 12.1905 12.875 11.1254 12.875ZM11.1251 23.0834C9.58605 23.0834 8.1423 22.7939 6.79383 22.2151C5.44536 21.6362 4.27237 20.8479 3.27487 19.8502C2.27718 18.8527 1.4889 17.6797 0.91004 16.3313C0.331179 14.9828 0.041748 13.539 0.041748 12C0.041748 10.461 0.331179 9.01724 0.91004 7.66877C1.4889 6.3203 2.27718 5.14731 3.27487 4.14981C4.27237 3.15212 5.44536 2.36384 6.79383 1.78498C8.1423 1.20612 9.58605 0.916687 11.1251 0.916687C12.6641 0.916687 14.1079 1.20612 15.4563 1.78498C16.8048 2.36384 17.9778 3.15212 18.9753 4.14981C19.973 5.14731 20.7613 6.3203 21.3401 7.66877C21.919 9.01724 22.2084 10.461 22.2084 12C22.2084 13.539 21.919 14.9828 21.3401 16.3313C20.7613 17.6797 19.973 18.8527 18.9753 19.8502C17.9778 20.8479 16.8048 21.6362 15.4563 22.2151C14.1079 22.7939 12.6641 23.0834 11.1251 23.0834ZM11.1251 21.3334C12.178 21.3334 13.1932 21.164 14.1707 20.8253C15.1481 20.4864 16.016 20.0126 16.7744 19.404C16.016 18.8175 15.1594 18.3606 14.2045 18.0331C13.2494 17.7055 12.2229 17.5417 11.1251 17.5417C10.0272 17.5417 8.99893 17.7036 8.04012 18.0273C7.08132 18.3513 6.22654 18.8101 5.47579 19.404C6.23412 20.0126 7.10203 20.4864 8.0795 20.8253C9.05697 21.164 10.0722 21.3334 11.1251 21.3334ZM11.1251 11.125C11.7055 11.125 12.1908 10.9298 12.5811 10.5394C12.9715 10.1491 13.1667 9.66377 13.1667 9.08335C13.1667 8.50294 12.9715 8.0176 12.5811 7.62735C12.1908 7.23691 11.7055 7.04169 11.1251 7.04169C10.5447 7.04169 10.0593 7.23691 9.66908 7.62735C9.27864 8.0176 9.08342 8.50294 9.08342 9.08335C9.08342 9.66377 9.27864 10.1491 9.66908 10.5394C10.0593 10.9298 10.5447 11.125 11.1251 11.125Z" fill="#727272"/>
</svg>
