<svg width="23" height="21" viewBox="0 0 23 21" fill="none" xmlns="http://www.w3.org/2000/svg">
<path d="M3.50125 20.75C2.73758 20.75 2.08817 20.4827 1.553 19.9482C1.01767 19.4137 0.75 18.7647 0.75 18.0012C0.75 17.2376 1.01725 16.5882 1.55175 16.053C2.08625 15.5177 2.73525 15.25 3.49875 15.25C4.26242 15.25 4.91183 15.5173 5.447 16.0518C5.98233 16.5863 6.25 17.2353 6.25 17.9988C6.25 18.7624 5.98275 19.4118 5.44825 19.947C4.91375 20.4823 4.26475 20.75 3.50125 20.75ZM3.5 19.25C3.8475 19.25 4.14267 19.1285 4.3855 18.8855C4.6285 18.6427 4.75 18.3475 4.75 18C4.75 17.6525 4.6285 17.3573 4.3855 17.1145C4.14267 16.8715 3.8475 16.75 3.5 16.75C3.1525 16.75 2.85733 16.8715 2.6145 17.1145C2.3715 17.3573 2.25 17.6525 2.25 18C2.25 18.3475 2.3715 18.6427 2.6145 18.8855C2.85733 19.1285 3.1525 19.25 3.5 19.25ZM7.375 20.75C7.6635 20.3487 7.88142 19.9119 8.02875 19.4397C8.17625 18.9674 8.25 18.4875 8.25 18C8.25 16.6858 7.78683 15.5657 6.8605 14.6395C5.93433 13.7132 4.81417 13.25 3.5 13.25C3.20517 13.25 2.91092 13.2785 2.61725 13.3355C2.32375 13.3927 2.03467 13.4718 1.75 13.573V8.25H4.75V4.6C4.75 3.3865 5.17158 2.35808 6.01475 1.51475C6.85775 0.671584 7.88592 0.25 9.09925 0.25C9.98175 0.25 10.7855 0.48975 11.5105 0.969251C12.2355 1.44875 12.7685 2.09108 13.1095 2.89625L20.0115 19.25H22.25V20.75H15.75V19.25H18.3848L11.7463 3.50375C11.5206 2.97558 11.1679 2.55125 10.6883 2.23075C10.2086 1.91025 9.67917 1.75 9.1 1.75C8.3145 1.75 7.64308 2.02858 7.08575 2.58575C6.52858 3.14308 6.25 3.8145 6.25 4.6V8.25H8.11525C9.15125 8.25 10.0352 8.616 10.7673 9.348C11.4993 10.0802 11.8652 10.9642 11.8652 12V20.75H7.375Z" fill="#434343"/>
</svg>
