<svg width="22" height="14" viewBox="0 0 22 14" fill="none" xmlns="http://www.w3.org/2000/svg">
<path d="M10.7025 11.077C11.8357 11.077 12.7981 10.6804 13.5898 9.88727C14.3814 9.0941 14.7773 8.13093 14.7773 6.99777C14.7773 5.8646 14.3807 4.90218 13.5875 4.11052C12.7944 3.31885 11.8312 2.92301 10.698 2.92301C9.56485 2.92301 8.60244 3.3196 7.81077 4.11277C7.0191 4.90593 6.62327 5.8691 6.62327 7.00227C6.62327 8.13543 7.01985 9.09785 7.81302 9.88951C8.60619 10.6812 9.56935 11.077 10.7025 11.077ZM10.7003 9.70002C9.95027 9.70002 9.31277 9.43752 8.78777 8.91252C8.26277 8.38752 8.00027 7.75002 8.00027 7.00002C8.00027 6.25002 8.26277 5.61252 8.78777 5.08752C9.31277 4.56252 9.95027 4.30002 10.7003 4.30002C11.4503 4.30002 12.0878 4.56252 12.6128 5.08752C13.1378 5.61252 13.4003 6.25002 13.4003 7.00002C13.4003 7.75002 13.1378 8.38752 12.6128 8.91252C12.0878 9.43752 11.4503 9.70002 10.7003 9.70002ZM10.7015 14C8.40202 14 6.30677 13.3657 4.41577 12.097C2.52477 10.8285 1.13244 9.12952 0.23877 7.00002C1.13244 4.87052 2.52427 3.17152 4.41427 1.90302C6.30444 0.634349 8.39935 1.52588e-05 10.699 1.52588e-05C12.9985 1.52588e-05 15.0938 0.634349 16.9848 1.90302C18.8758 3.17152 20.2681 4.87052 21.1618 7.00002C20.2681 9.12952 18.8763 10.8285 16.9863 12.097C15.0961 13.3657 13.0012 14 10.7015 14ZM10.7003 12.5C12.5836 12.5 14.3128 12.0042 15.8878 11.0125C17.4628 10.0208 18.6669 8.68335 19.5003 7.00002C18.6669 5.31668 17.4628 3.97918 15.8878 2.98752C14.3128 1.99585 12.5836 1.50002 10.7003 1.50002C8.81694 1.50002 7.08777 1.99585 5.51277 2.98752C3.93777 3.97918 2.7336 5.31668 1.90027 7.00002C2.7336 8.68335 3.93777 10.0208 5.51277 11.0125C7.08777 12.0042 8.81694 12.5 10.7003 12.5Z" fill="#A1A1A1"/>
</svg>
