<svg width="13" height="12" viewBox="0 0 13 12" fill="none" xmlns="http://www.w3.org/2000/svg">
<path d="M3.73086 11.7785C3.27671 12.0525 2.71648 11.6457 2.83646 11.129L3.50806 8.23724C3.55838 8.02053 3.48468 7.79377 3.31655 7.64808L1.07154 5.70254C0.670899 5.35534 0.884447 4.69719 1.41261 4.65136L4.37664 4.39416C4.598 4.37495 4.79062 4.23498 4.87727 4.03038L6.03156 1.30466C6.23824 0.816625 6.92989 0.816626 7.13656 1.30466L8.29085 4.03038C8.3775 4.23498 8.57012 4.37495 8.79148 4.39416L11.7555 4.65136C12.2837 4.69719 12.4972 5.35534 12.0966 5.70254L9.85157 7.64808C9.68345 7.79377 9.60974 8.02053 9.66007 8.23724L10.3317 11.129C10.4516 11.6457 9.89142 12.0525 9.43727 11.7785L6.89401 10.2441C6.70338 10.1291 6.46474 10.1291 6.27411 10.2441L3.73086 11.7785Z" fill="#FFA743"/>
</svg>
