<svg width="22" height="17" viewBox="0 0 22 17" fill="none" xmlns="http://www.w3.org/2000/svg">
<path d="M3.48071 16.75C2.71788 16.75 2.06888 16.4823 1.53371 15.947C0.998379 15.4118 0.730713 14.7628 0.730713 14C0.730713 13.5858 0.815713 13.1942 0.985713 12.825C1.15555 12.4558 1.40388 12.1392 1.73071 11.875V7.25H3.87496V1.5H10.923L15.45 12.1328C15.5435 12.3533 15.6169 12.5753 15.6702 12.799C15.7234 13.0227 15.75 13.2563 15.75 13.5C15.75 14.4025 15.434 15.1698 14.802 15.802C14.1698 16.434 13.4025 16.75 12.5 16.75C11.8358 16.75 11.2306 16.5693 10.6845 16.2078C10.1385 15.8461 9.74296 15.3602 9.49796 14.75H6.11346C5.94813 15.3435 5.62155 15.8253 5.13371 16.1953C4.64588 16.5651 4.09488 16.75 3.48071 16.75ZM16.75 15.75V0.25H18.25V14.25H21.2692V15.75H16.75ZM3.48071 15.25C3.82821 15.25 4.12346 15.1285 4.36646 14.8855C4.6093 14.6427 4.73071 14.3475 4.73071 14C4.73071 13.6525 4.6093 13.3573 4.36646 13.1145C4.12346 12.8715 3.82821 12.75 3.48071 12.75C3.13338 12.75 2.83821 12.8715 2.59521 13.1145C2.35221 13.3573 2.23071 13.6525 2.23071 14C2.23071 14.3475 2.35221 14.6427 2.59521 14.8855C2.83821 15.1285 3.13338 15.25 3.48071 15.25ZM12.5 15.25C12.9808 15.25 13.3926 15.0785 13.7355 14.7355C14.0785 14.3927 14.25 13.9808 14.25 13.5C14.25 13.0192 14.0785 12.6073 13.7355 12.2645C13.3926 11.9215 12.9808 11.75 12.5 11.75C12.0191 11.75 11.6073 11.9215 11.2645 12.2645C10.9215 12.6073 10.75 13.0192 10.75 13.5C10.75 13.9808 10.9215 14.3927 11.2645 14.7355C11.6073 15.0785 12.0191 15.25 12.5 15.25ZM8.29996 10.25H12.5922C12.6755 10.25 12.7573 10.2596 12.8375 10.2788C12.9176 10.2981 12.9961 10.327 13.073 10.3655L9.93471 3H5.37496V7.25L8.29996 10.25Z" fill="#434343"/>
</svg>
