<svg width="21" height="18" viewBox="0 0 21 18" fill="none" xmlns="http://www.w3.org/2000/svg">
<path d="M5.88086 13.923C5.24502 14.455 4.58161 14.696 3.89061 14.646C3.19944 14.596 2.59944 14.3602 2.09061 13.9385C1.58161 13.5167 1.23577 12.9634 1.05311 12.2788C0.87044 11.5942 0.995107 10.8937 1.42711 10.177L3.34061 7.0095C2.93027 6.675 2.60427 6.26225 2.36261 5.77125C2.12094 5.28025 2.00011 4.7475 2.00011 4.173C2.00011 3.15633 2.35811 2.29 3.07411 1.574C3.79011 0.858001 4.65644 0.5 5.67311 0.5C6.68977 0.5 7.55611 0.858001 8.27211 1.574C8.98827 2.29 9.34636 3.15633 9.34636 4.173C9.34636 5.18967 8.98827 6.056 8.27211 6.772C7.55611 7.48817 6.68977 7.84625 5.67311 7.84625C5.49761 7.84625 5.32519 7.83467 5.15586 7.8115C4.98669 7.7885 4.82577 7.75067 4.67311 7.698L2.71936 10.9672C2.51036 11.3121 2.44561 11.6512 2.52511 11.9845C2.60461 12.3178 2.76869 12.589 3.01736 12.798C3.26619 13.007 3.56302 13.1256 3.90786 13.1538C4.25269 13.1821 4.58602 13.0635 4.90786 12.798L15.1289 4.0615C15.7584 3.5295 16.418 3.2895 17.1079 3.3415C17.7975 3.39333 18.4 3.63017 18.9154 4.052C19.4309 4.47383 19.7806 5.027 19.9646 5.7115C20.1484 6.39617 20.0212 7.1 19.5829 7.823L17.6596 11C18.0699 11.3347 18.3959 11.7459 18.6376 12.2338C18.8793 12.7214 19.0001 13.2525 19.0001 13.827C19.0001 14.8437 18.6404 15.71 17.9211 16.426C17.2019 17.142 16.334 17.5 15.3174 17.5C14.3072 17.5 13.4441 17.1403 12.7281 16.421C12.0119 15.7018 11.6539 14.8372 11.6539 13.827C11.6539 12.8167 12.0119 11.9519 12.7281 11.2327C13.4441 10.5134 14.3072 10.1538 15.3174 10.1538C15.493 10.1538 15.6645 10.1669 15.8319 10.1933C15.9992 10.2196 16.1591 10.259 16.3116 10.3115L18.2809 7.03275C18.4899 6.68792 18.5562 6.34883 18.4799 6.0155C18.4037 5.68217 18.2412 5.411 17.9924 5.202C17.7437 4.993 17.4469 4.87275 17.1021 4.84125C16.7571 4.80992 16.4238 4.93017 16.1021 5.202L5.88086 13.923Z" fill="#434343"/>
</svg>
