<svg width="20" height="19" viewBox="0 0 20 19" fill="none" xmlns="http://www.w3.org/2000/svg">
<path d="M9.7002 18.1154L8.59645 17.1231C6.93878 15.6193 5.56795 14.327 4.48395 13.2464C3.39995 12.1655 2.54095 11.2036 1.90695 10.3606C1.27295 9.5178 0.830029 8.74888 0.578195 8.05388C0.326195 7.35905 0.200195 6.65396 0.200195 5.93863C0.200195 4.51946 0.678695 3.3313 1.6357 2.37413C2.59286 1.41713 3.78103 0.938629 5.2002 0.938629C6.0732 0.938629 6.8982 1.1428 7.6752 1.55113C8.4522 1.95946 9.1272 2.54505 9.7002 3.30788C10.2732 2.54505 10.9482 1.95946 11.7252 1.55113C12.5022 1.1428 13.3272 0.938629 14.2002 0.938629C15.6194 0.938629 16.8075 1.41713 17.7647 2.37413C18.7217 3.3313 19.2002 4.51946 19.2002 5.93863C19.2002 6.65396 19.0742 7.35905 18.8222 8.05388C18.5704 8.74888 18.1274 9.5178 17.4934 10.3606C16.8594 11.2036 16.002 12.1655 14.9212 13.2464C13.8405 14.327 12.4681 15.6193 10.8039 17.1231L9.7002 18.1154ZM9.7002 16.0886C11.3002 14.649 12.6169 13.415 13.6502 12.3866C14.6835 11.3585 15.5002 10.4652 16.1002 9.70688C16.7002 8.94855 17.1169 8.27513 17.3502 7.68663C17.5835 7.0983 17.7002 6.51563 17.7002 5.93863C17.7002 4.93863 17.3669 4.1053 16.7002 3.43863C16.0335 2.77196 15.2002 2.43863 14.2002 2.43863C13.4105 2.43863 12.6807 2.66263 12.0107 3.11063C11.3409 3.5588 10.8104 4.18221 10.4194 4.98088H8.98095C8.58345 4.17571 8.05136 3.55071 7.3847 3.10588C6.71803 2.66105 5.98986 2.43863 5.2002 2.43863C4.20653 2.43863 3.37478 2.77196 2.70495 3.43863C2.03511 4.1053 1.7002 4.93863 1.7002 5.93863C1.7002 6.51563 1.81686 7.0983 2.0502 7.68663C2.28353 8.27513 2.7002 8.94855 3.3002 9.70688C3.9002 10.4652 4.71686 11.3569 5.7502 12.3819C6.78353 13.4069 8.1002 14.6425 9.7002 16.0886Z" fill="#434343"/>
</svg>
