<svg width="18" height="19" viewBox="0 0 18 19" fill="none" xmlns="http://www.w3.org/2000/svg">
<path d="M1.36914 18.2307V15.923H4.43064L1.86139 7.51524C1.41789 7.28458 1.05831 6.95 0.78264 6.5115C0.506974 6.073 0.369141 5.58841 0.369141 5.05774C0.369141 4.29491 0.636807 3.64583 1.17214 3.11049C1.70731 2.57533 2.35631 2.30774 3.11914 2.30774C3.74997 2.30774 4.30189 2.49524 4.77489 2.87024C5.24789 3.24524 5.57164 3.72441 5.74614 4.30774H9.17689V3.05774C9.17689 2.84491 9.24864 2.66666 9.39214 2.52299C9.53581 2.37949 9.71406 2.30774 9.92689 2.30774C10.0576 2.30774 10.1793 2.34108 10.2921 2.40775C10.405 2.47441 10.4921 2.56799 10.5536 2.68849V2.82299L12.3114 1.18475C12.4551 1.04108 12.6214 0.951661 12.8104 0.916494C12.9996 0.881161 13.1845 0.910328 13.3651 1.00399L17.2076 2.78475C17.3691 2.86541 17.4841 2.98233 17.5526 3.13549C17.6213 3.28883 17.6204 3.44108 17.5499 3.59225C17.4691 3.75391 17.3521 3.8575 17.1989 3.90299C17.0457 3.94849 16.8935 3.93599 16.7421 3.86549L13.0461 2.15775L10.6769 4.35774V5.75775L13.0461 7.90774L16.7421 6.2C16.8935 6.1295 17.0483 6.11958 17.2066 6.17025C17.365 6.22091 17.4794 6.32183 17.5499 6.47299C17.6306 6.63449 17.6341 6.78933 17.5604 6.9375C17.4867 7.08549 17.3691 7.19991 17.2076 7.28074L13.3651 9.09225C13.1845 9.18591 12.9996 9.21508 12.8104 9.17974C12.6214 9.14458 12.4551 9.05516 12.3114 8.9115L10.5536 7.29225V7.427C10.4921 7.527 10.405 7.61541 10.2921 7.69225C10.1793 7.76924 10.0576 7.80774 9.92689 7.80774C9.71406 7.80774 9.53581 7.73591 9.39214 7.59224C9.24864 7.44874 9.17689 7.27058 9.17689 7.05774V5.80774H5.74614C5.69614 5.98591 5.62756 6.159 5.54039 6.327C5.45306 6.49483 5.34981 6.64866 5.23064 6.78849L10.1536 15.923H13.8691V18.2307H1.36914ZM3.11914 6.30774C3.46664 6.30774 3.76181 6.18624 4.00464 5.94324C4.24764 5.70024 4.36914 5.40508 4.36914 5.05774C4.36914 4.71025 4.24764 4.415 4.00464 4.172C3.76181 3.92916 3.46664 3.80774 3.11914 3.80774C2.77164 3.80774 2.47647 3.92916 2.23364 4.172C1.99064 4.415 1.86914 4.71025 1.86914 5.05774C1.86914 5.40508 1.99064 5.70024 2.23364 5.94324C2.47647 6.18624 2.77164 6.30774 3.11914 6.30774Z" fill="#434343"/>
</svg>
