<svg xmlns="http://www.w3.org/2000/svg" width="24" height="24" fill="none" viewBox="0 0 24 24"><g fill="#101418" fill-rule="evenodd" clip-rule="evenodd"><path d="M12 8.5a3.5 3.5 0 1 0 0 7 3.5 3.5 0 0 0 0-7zM10 12a2 2 0 1 1 4 0 2 2 0 0 1-4 0z"/><path d="M12.75 2.75a.75.75 0 0 0-1.5 0v2.063c0 .08.013.158.037.231a7.003 7.003 0 0 0-6.247 6.212.758.758 0 0 0-.04-.001H2.75a.75.75 0 0 0 0 1.5H5l.04-.001a7.003 7.003 0 0 0 6.233 6.217.751.751 0 0 0-.023.185v2.103a.75.75 0 0 0 1.5 0v-2.103a.752.752 0 0 0-.023-.185 7.002 7.002 0 0 0 6.234-6.216h2.297a.75.75 0 1 0 0-1.5H18.96a7.003 7.003 0 0 0-6.247-6.21.747.747 0 0 0 .037-.232zm4.75 9.259a5.5 5.5 0 1 1-11 0 5.5 5.5 0 0 1 11 0z"/></g></svg>