<svg width="20" height="16" viewBox="0 0 20 16" fill="none" xmlns="http://www.w3.org/2000/svg">
<path d="M2.30775 15.5C1.80258 15.5 1.375 15.325 1.025 14.975C0.675 14.625 0.5 14.1974 0.5 13.6923V2.30775C0.5 1.80258 0.675 1.375 1.025 1.025C1.375 0.675 1.80258 0.5 2.30775 0.5H17.6923C18.1974 0.5 18.625 0.675 18.975 1.025C19.325 1.375 19.5 1.80258 19.5 2.30775V13.6923C19.5 14.1974 19.325 14.625 18.975 14.975C18.625 15.325 18.1974 15.5 17.6923 15.5H2.30775ZM2.30775 14H12.5V2H2.30775C2.23075 2 2.16025 2.03208 2.09625 2.09625C2.03208 2.16025 2 2.23075 2 2.30775V13.6923C2 13.7692 2.03208 13.8398 2.09625 13.9038C2.16025 13.9679 2.23075 14 2.30775 14ZM15.1538 4.84625H16.8463V3.15375H15.1538V4.84625ZM16 8.8845C16.2448 8.8845 16.4535 8.79833 16.626 8.626C16.7983 8.4535 16.8845 8.24483 16.8845 8C16.8845 7.75517 16.7983 7.5465 16.626 7.374C16.4535 7.20167 16.2448 7.1155 16 7.1155C15.7552 7.1155 15.5465 7.20167 15.374 7.374C15.2017 7.5465 15.1155 7.75517 15.1155 8C15.1155 8.24483 15.2017 8.4535 15.374 8.626C15.5465 8.79833 15.7552 8.8845 16 8.8845ZM16 12.8845C16.2448 12.8845 16.4535 12.7983 16.626 12.626C16.7983 12.4535 16.8845 12.2448 16.8845 12C16.8845 11.7552 16.7983 11.5465 16.626 11.374C16.4535 11.2017 16.2448 11.1155 16 11.1155C15.7552 11.1155 15.5465 11.2017 15.374 11.374C15.2017 11.5465 15.1155 11.7552 15.1155 12C15.1155 12.2448 15.2017 12.4535 15.374 12.626C15.5465 12.7983 15.7552 12.8845 16 12.8845ZM8.5 11.75C8.1385 11.75 7.81675 11.6766 7.53475 11.5297C7.25258 11.3829 7.00958 11.2461 6.80575 11.1193C6.63275 11.0026 6.48825 10.9118 6.37225 10.847C6.25608 10.7823 6.132 10.75 6 10.75C5.82317 10.75 5.64783 10.809 5.474 10.927C5.30033 11.0448 5.16225 11.1538 5.05975 11.2537L3.98075 10.2C4.16408 10.0257 4.4295 9.82375 4.777 9.59425C5.12433 9.36475 5.532 9.25 6 9.25C6.3615 9.25 6.6785 9.32433 6.951 9.473C7.2235 9.62183 7.46167 9.75967 7.6655 9.8865C7.82833 9.99933 7.97925 10.0882 8.11825 10.153C8.25742 10.2177 8.38467 10.25 8.5 10.25C8.677 10.25 8.85233 10.191 9.026 10.073C9.19967 9.95517 9.33783 9.84625 9.4405 9.74625L10.5192 10.8C10.3359 10.9743 10.0705 11.1763 9.723 11.4058C9.37567 11.6353 8.968 11.75 8.5 11.75ZM8.5 6.75C8.1385 6.75 7.81675 6.67658 7.53475 6.52975C7.25258 6.38292 7.00958 6.24608 6.80575 6.11925C6.63275 6.00258 6.48825 5.91183 6.37225 5.847C6.25608 5.78233 6.132 5.75 6 5.75C5.82317 5.75 5.64783 5.809 5.474 5.927C5.30033 6.04483 5.16225 6.15375 5.05975 6.25375L3.98075 5.2C4.16408 5.02567 4.4295 4.82375 4.777 4.59425C5.12433 4.36475 5.532 4.25 6 4.25C6.3615 4.25 6.6785 4.32433 6.951 4.473C7.2235 4.62183 7.46167 4.75967 7.6655 4.8865C7.82833 4.99933 7.97925 5.08817 8.11825 5.153C8.25742 5.21767 8.38467 5.25 8.5 5.25C8.677 5.25 8.85233 5.191 9.026 5.073C9.19967 4.95517 9.33783 4.84625 9.4405 4.74625L10.5192 5.8C10.3359 5.97433 10.0705 6.17625 9.723 6.40575C9.37567 6.63525 8.968 6.75 8.5 6.75Z" fill="#434343"/>
</svg>
