<svg width="22" height="18" viewBox="0 0 22 18" fill="none" xmlns="http://www.w3.org/2000/svg">
<path d="M10 17.3268L7.83475 15.3808C6.47442 14.1436 5.32667 13.0615 4.3915 12.1345C3.45617 11.2077 2.69975 10.3613 2.12225 9.59525C1.54458 8.82925 1.12983 8.109 0.878 7.4345C0.626 6.76017 0.5 6.06533 0.5 5.35C0.5 3.93084 0.9785 2.74525 1.9355 1.79325C2.89267 0.841418 4.08083 0.365501 5.5 0.365501C6.373 0.365501 7.198 0.569668 7.975 0.978001C8.752 1.38633 9.427 1.97192 10 2.73475C10.573 1.97192 11.248 1.38633 12.025 0.978001C12.802 0.569668 13.627 0.365501 14.5 0.365501C15.7538 0.365501 16.8118 0.735002 17.674 1.474C18.5362 2.21317 19.0955 3.1385 19.352 4.25H17.775C17.5455 3.5065 17.1263 2.92317 16.5173 2.5C15.9082 2.07683 15.2358 1.86525 14.5 1.86525C13.6692 1.86525 12.9342 2.09442 12.2952 2.55275C11.6561 3.01108 11.0538 3.66017 10.4885 4.5H9.5115C8.95 3.65383 8.3385 3.00317 7.677 2.548C7.01533 2.09283 6.28967 1.86525 5.5 1.86525C4.53717 1.86525 3.71317 2.19608 3.028 2.85775C2.34267 3.51925 2 4.35 2 5.35C2 5.90633 2.11667 6.47109 2.35 7.04425C2.58333 7.61725 3 8.27784 3.6 9.026C4.2 9.774 5.01667 10.6503 6.05 11.6548C7.08333 12.6593 8.4 13.8743 10 15.3C10.4718 14.8782 10.977 14.4301 11.5155 13.9558C12.0538 13.4814 12.5077 13.068 12.877 12.7155L13.0443 12.8828L13.4115 13.25L13.7788 13.6173L13.946 13.7845C13.5667 14.1372 13.1145 14.5449 12.5895 15.0078C12.0645 15.4706 11.5693 15.9128 11.1038 16.3345L10 17.3268ZM16.8652 13.75V10.75H13.8652V9.25H16.8652V6.25H18.3652V9.25H21.3652V10.75H18.3652V13.75H16.8652Z" fill="#727272"/>
</svg>
