<svg width="14" height="16" viewBox="0 0 14 16" fill="none" xmlns="http://www.w3.org/2000/svg">
<path d="M7.00142 7.88769C7.416 7.88769 7.77045 7.74005 8.06475 7.44477C8.3592 7.14949 8.50642 6.79456 8.50642 6.37998C8.50642 5.9654 8.35878 5.61088 8.0635 5.31644C7.76822 5.02213 7.41322 4.87498 6.9985 4.87498C6.58392 4.87498 6.22947 5.02262 5.93517 5.3179C5.64072 5.61317 5.4935 5.96817 5.4935 6.3829C5.4935 6.79748 5.64114 7.15192 5.93642 7.44623C6.2317 7.74054 6.5867 7.88769 7.00142 7.88769ZM6.99996 14.2612C8.63024 12.8018 9.87781 11.4019 10.7427 10.0616C11.6075 8.72137 12.04 7.54748 12.04 6.53998C12.04 5.02081 11.5573 3.77192 10.592 2.79331C9.62677 1.8147 8.4294 1.3254 6.99996 1.3254C5.57052 1.3254 4.37315 1.8147 3.40788 2.79331C2.4426 3.77192 1.95996 5.02081 1.95996 6.53998C1.95996 7.54748 2.39239 8.72137 3.25725 10.0616C4.12211 11.4019 5.36968 12.8018 6.99996 14.2612ZM6.99996 15.9246C4.90274 14.1073 3.3301 12.4162 2.28204 10.851C1.23399 9.28574 0.709961 7.84873 0.709961 6.53998C0.709961 4.61692 1.33197 3.06005 2.576 1.86935C3.82017 0.67866 5.29482 0.083313 6.99996 0.083313C8.7051 0.083313 10.1798 0.67866 11.4239 1.86935C12.6679 3.06005 13.29 4.61692 13.29 6.53998C13.29 7.84873 12.7659 9.28574 11.7179 10.851C10.6698 12.4162 9.09718 14.1073 6.99996 15.9246Z" fill="#0093DD"/>
</svg>
